<svg xmlns="http://www.w3.org/2000/svg" viewBox="-4 91 136 76">
  <!-- White background — matches how the logo is used on the site -->
  <rect x="-4" y="91" width="136" height="76" rx="11" fill="#ffffff"/>
  <!-- Full logo path: viewBox crops to just the 'm' character (x 0–128, y 92–165) -->
  <path d="M379.438 100.24c-10.452 0-18.976 8.196-20.27 19.487-1.312 11.475 5.188 19.487 15.81 19.487 10.787 0 18.935-7.831 20.27-19.487 1.31-11.472-5.19-19.487-15.81-19.487m-6.788 59.3c-26.4 0-42.293-16.116-39.547-40.101 2.66-23.233 23.154-40.095 48.73-40.095 21.967 0 42.713 12.398 39.542 40.095-2.788 24.362-21.914 40.1-48.726 40.1m-187.544-59.3c-10.453 0-18.977 8.197-20.27 19.488-1.313 11.475 5.187 19.487 15.809 19.487 10.785 0 18.93-7.831 20.266-19.487 1.315-11.472-5.183-19.487-15.805-19.487m-6.789 59.3c-26.402 0-42.291-16.116-39.545-40.101 2.658-23.233 23.152-40.095 48.727-40.095 21.968 0 42.715 12.398 39.543 40.095-2.788 24.362-21.912 40.1-48.725 40.1m-76.13-2.178 5.2-47.582c.22-2.327-.648-4.118-2.34-6.044-1.779-2.03-4.398-3.06-7.78-3.06-8.16 0-11.875 5.529-12.63 10.701l-5.267 45.985H53.224l5.201-47.582c.194-2.21-.648-4.118-2.337-6.044-1.78-2.03-4.398-3.06-7.78-3.06-8.323 0-12.114 5.896-12.83 10.943l-5.238 45.743H4.098l6.724-58.747H0l1.99-17.38h29.816l5.156 10.623 2.176-3.083c.27-.377 6.916-9.43 20.547-9.43 15.082 0 18.23 9.613 18.356 10.024l1.049 3.389 2.564-2.921c.374-.424 9.48-10.492 27.157-10.492 16.925 0 27.106 11.013 26 21.302l-6.484 56.715h-26.141z" fill="#7AB800" fill-rule="evenodd"/>
</svg>
