<svg xmlns="http://www.w3.org/2000/svg" width="300" height="150" viewBox="0 0 440 206">
    <path d="M379.438 100.24c-10.452 0-18.976 8.196-20.27 19.487-1.312 11.475 5.188 19.487 15.81 19.487 10.787 0 18.935-7.831 20.27-19.487 1.31-11.472-5.19-19.487-15.81-19.487m-6.788 59.3c-26.4 0-42.293-16.116-39.547-40.101 2.66-23.233 23.154-40.095 48.73-40.095 21.967 0 42.713 12.398 39.542 40.095-2.788 24.362-21.914 40.1-48.726 40.1m-187.544-59.3c-10.453 0-18.977 8.197-20.27 19.488-1.313 11.475 5.187 19.487 15.809 19.487 10.785 0 18.93-7.831 20.266-19.487 1.315-11.472-5.183-19.487-15.805-19.487m-6.789 59.3c-26.402 0-42.291-16.116-39.545-40.101 2.658-23.233 23.152-40.095 48.727-40.095 21.968 0 42.715 12.398 39.543 40.095-2.788 24.362-21.912 40.1-48.725 40.1m-76.13-2.178 5.2-47.582c.22-2.327-.648-4.118-2.34-6.044-1.779-2.03-4.398-3.06-7.78-3.06-8.16 0-11.875 5.529-12.63 10.701l-5.267 45.985H53.224l5.201-47.582c.194-2.21-.648-4.118-2.337-6.044-1.78-2.03-4.398-3.06-7.78-3.06-8.323 0-12.114 5.896-12.83 10.943l-5.238 45.743H4.098l6.724-58.747H0l1.99-17.38h29.816l5.156 10.623 2.176-3.083c.27-.377 6.916-9.43 20.547-9.43 15.082 0 18.23 9.613 18.356 10.024l1.049 3.389 2.564-2.921c.374-.424 9.48-10.492 27.157-10.492 16.925 0 27.106 11.013 26 21.302l-6.484 56.715h-26.141zm172.965-18.147c-10.62 0-17.122-8.012-15.808-19.486 1.292-11.291 9.815-19.488 20.27-19.488 10.618 0 17.12 8.014 15.807 19.488-1.334 11.654-9.48 19.486-20.269 19.486zm29.067-58.037-.807 6.597c-5.068-5.183-12.17-8.43-21.406-8.43-25.575 0-46.069 16.863-48.73 40.096-2.744 23.983 13.148 40.1 39.55 40.1 9.051 0 16.643-2.804 22.707-7.362l-.432 3.526s-.22 6.502-5.079 11.578c-5.063 5.288-15.506 11.907-39.997 11.907l-3.128 26.42c28.82 0 49.613-7.05 62.135-20.13 10.958-11.447 12.295-24.044 12.41-28.402l9.17-75.94-26.393.04z" fill="#7AB800" fill-rule="evenodd"></path>
    <path d="M297.488 0c-43.898 0-72.662 20.883-98.9 48.825-38.162 3.34-63.713 32.829-57.683 28.83 16.407-12.513 34.64-19.444 61.547-19.444 1.282 0 35.091-47.59 94.356-47.59 33 0 68.81 18.383 84.25 48.61 35.564 0 62.847 23.813 53.45 60.154-1.185 4.24-.422 4.419 1.39.288 3.524-8.055 18.17-59.943-48.444-68.261C374.116 23.73 335.927 0 297.488 0z" fill="#003478" fill-rule="evenodd"></path>
</svg>